<?xml version="1.0" encoding="UTF-8"?>
<svg width="330px" height="420px" viewBox="0 0 330 420" version="1.1" xmlns="http://www.w3.org/2000/svg" xmlns:xlink="http://www.w3.org/1999/xlink">
    <!-- Generator: Sketch 39.1 (31720) - http://www.bohemiancoding.com/sketch -->
    <title>epl-icon</title>
    <desc>Created with Sketch.</desc>
    <defs>
        <linearGradient x1="50%" y1="0%" x2="50%" y2="100%" id="linearGradient-1">
            <stop stop-color="#66076D" offset="0%"></stop>
            <stop stop-color="#36033B" offset="100%"></stop>
        </linearGradient>
    </defs>
    <g id="Page-1" stroke="none" stroke-width="1" fill="none" fill-rule="evenodd">
        <g id="icon" transform="translate(-235.000000, -90.000000)" fill="url(#linearGradient-1)">
            <path d="M353.708011,233.708008 C360.701175,224.020508 369.531256,218.03125 380.508792,214.764648 C377.484381,210.699219 377.064456,210.317383 372.413086,207.419922 C380.508792,200.407227 396.245914,188.889648 426.829102,184.935547 C442.629886,190.886719 454.6211,201.064453 463.052737,207.419922 C466.959964,201.064453 468.352542,196.810547 468.72168,189.485352 C485.970706,195.27832 501.743139,209.115234 517.545886,224.020508 C510.337878,207.419922 506.901367,199.103515 506.901367,188.889648 C493.077136,174.689453 472.515628,166.988281 453.468753,161.856445 C455.912112,166.988281 458.46094,176.783203 456.985352,180.501953 C452.243167,174.120117 439.233404,162.422852 431.093753,158.381836 C400.231448,156.854492 368.3418,158.381836 332.853519,177.172851 C348.011722,180.501954 354.635748,190.640625 357.234378,198.561522 C344.320315,188.889649 329.358401,188.445312 321.171878,196.810546 C312.985355,205.17578 313.274417,222.707034 322.203125,240.900391 C298.880862,227.508792 303.819339,202.159179 308.955078,190.886719 C287.578124,204.839843 258.839843,239.907229 252.486327,258.326175 C258.839843,259.538089 263.283202,260.347659 271.304688,261.821289 C252.486327,284.694339 236.179688,319.477542 235,351.319339 C246.157227,347.845706 255.741211,344.447268 265.581055,342.118164 C254.043945,382.706058 267.451172,440.816409 276.572266,453.423828 C292.776367,443.025393 318.912106,411.180664 328.200195,394.887695 C339.207031,431.68555 335.09668,468.110357 328.200195,495.454104 C359.56543,512.829107 414.266602,520.266604 468.352539,483.417969 C470.586914,492.030276 472.515625,499.798831 474.380859,506.821289 C524.383789,474.489261 538.220715,424.911136 539.729492,400.390628 C544.741211,405.676761 545.783203,408.566409 554.223633,416.347656 C578.038086,346.02637 556.514648,291.0293 526.515369,250.408936 C526.515356,253.441162 526.515369,258.128906 525.491931,260.347656 C520.115234,255.486331 517.545898,252.280276 512.124023,246.049805 C513.917725,245.295169 516.623047,243.046392 517.545898,241.185061 C516.315918,236.17481 514.665527,230.788333 509.691162,227.839847 C506.015625,228.503665 499.622083,232.967773 498.237305,235.337891 C493.80957,232.967776 489.801758,229.51026 481.793457,225.503177 C486.960205,234.718267 491.070068,238.046878 492.87915,243.15137 C497.166016,248.166018 512.959473,258.20899 518.885986,267.049808 C504.97168,260.230474 480.957028,262.079104 471.935547,267.049808 C460.015381,252.158941 452.144775,245.389163 447.067383,240.698242 C446.031253,235.337891 448.987793,227.839847 453.46875,224.020508 C444.924561,225.503177 440.839844,227.254397 436.986328,231.268555 C427.563965,225.503177 419.283691,220.157714 410.041016,218.341308 C401.510254,219.335937 385.914062,227.839847 381.81543,232.843753 C387.805664,237.706058 397.337888,243.151367 405.599609,243.151367 C413.861331,243.151367 423.937497,241.119141 429.858398,244.469727 C435.7793,247.820312 447.067386,259.292969 457.137695,271.243164 C451.62598,269.916992 440.215823,264.869141 419.788089,267.049805 C399.360355,269.230469 369.78223,264.25 368.341797,235.602539 C361.5293,235.602539 360.701178,235.733398 353.708011,233.708008 Z M421.5625,308.018555 C427.867188,299.65332 457.044923,283.179688 471.886719,281.282227 C478.596681,287.4375 486.09375,290.491211 493.310547,293.923828 C493.668942,301.140625 493.310544,311.949219 493.310544,317.480469 C485.949216,325.49707 454.41797,347.782227 441.18457,344.713867 C436.244141,336.709961 427.867188,321.335938 421.5625,308.018555 Z M507.185547,294.358398 C511.49707,291.125977 518.522461,286.185547 523.556641,282.770508 C528.046875,288.270508 536.335937,324.317383 524.668945,342.661133 C515.782227,324.317383 513.050293,326.603516 507.064453,318.294922 C507.064453,307.989258 507.064453,298.080078 507.185547,294.358398 Z M450.481445,363.15918 C456.797852,363.15918 478.246094,353.195312 488.203125,341.632813 C493.537109,341.632812 502.850586,341.632813 506.953125,341.632813 C510.90918,345.891602 516.227539,356.336914 516.227539,360.192383 C514.178223,372.644043 506.339844,389.890625 492.923828,398.087891 C493.796387,392.701172 492.923828,379.63623 490.674805,370.958008 C485.32666,377.79834 472.875,383.562012 462.888672,385.535156 C458.701172,379.86133 453.759766,370.339844 450.481445,363.15918 Z M322.479492,171.055664 C321.371094,165.916992 309.402344,134.820312 299.925781,125.151367 C312.779297,130.99707 324.583008,138.612305 332.125,145.875 C329.617188,129.586914 326.837891,112.524414 325.62793,103.416992 C338.208984,112.524414 361.475586,129.586914 369.689453,134.557617 C374.010742,125.151367 381.583008,99.3808594 384.810547,90 C390.62207,99.3808594 404.509766,122.641602 409.6875,129.586914 C414.536133,125.151367 441.12793,93.7617188 446.125,90.0537109 C447.422852,106.059571 447.958008,121.544921 447.958008,133.305663 C454.677734,124.085935 466.124023,110.551759 476.079102,104.662109 C468.017578,120.04004 464.78418,135.786132 464.78418,152.867188 C415.727539,140.754882 361.742188,145.874999 322.479492,171.055664 Z" id="epl-icon"></path>
        </g>
    </g>
</svg>