<svg xmlns="http://www.w3.org/2000/svg" width="864" height="864"><path fill-rule="evenodd" clip-rule="evenodd" d="M523.81 828c-1.655-14.196-5.97-27.498-11.446-40.663-4.091-9.832-6.509-20.357-9.806-30.527-.446-1.368-1.414-3-2.605-3.627-17.821-9.39-29.238-24.374-37.472-42.248-.74-1.608-1.909-3.263-3.324-4.28-13.566-9.757-21.833-23.407-28.223-38.37-2.275-5.33-3.752-10.997-5.775-16.442-.557-1.498-1.517-3.032-2.703-4.081-15.904-14.045-31.748-28.283-42.956-46.483-8.669-14.077-19.44-26.51-28.85-39.986-12.848-18.4-22.547-38.291-29.946-59.425-2.41-6.886-5.67-13.477-8.527-20.209-.573-1.347-1.406-1.815-2.997-1.88-12.595-.514-24.914 1.493-37.175 3.951-2.328.468-4.65 1.499-6.696 2.735-6.783 4.095-13.768 7.904-21.562 9.35-9.262 1.718-18.374 2.088-26.13-5.392-2.913-2.809-7.217-4.263-11.034-6.013-3.275-1.502-4.463-3.763-4.559-7.303-.065-2.394-.963-4.873-1.944-7.117-1.625-3.714-1.563-7.268.185-10.824 3.823-7.77 9.19-14.46 15.291-20.478 8.507-8.392 17.387-16.404 26.008-24.683 1.512-1.453 2.942-3.253 3.717-5.174 3.779-9.38 7.374-18.837 10.89-28.32.478-1.288.448-2.941.136-4.306-.711-3.108-1.035-6.107.697-9.24-11.031-4.326-20.26-10.962-28.9-18.352-17.224-14.731-29.305-32.908-35.16-54.936-1.337-5.03-2.893-10.167-1.72-15.514 1.3-5.942 6.567-8.592 11.998-5.91 11.033 5.453 22.001 11.042 33.005 16.557 4.704 2.36 9.293 5.032 14.176 6.943 12.361 4.835 21.919 13.324 30.829 22.751.637.673 1.104 1.505 1.65 2.266l.975-.343c.807-4.749 1.722-9.484 2.377-14.256.409-2.974.319-6.013.63-9.003.612-5.899-1.08-11.157-3.461-16.522-9.863-22.227-25.166-40.177-44.225-54.703-8.63-6.579-18.987-10.925-28.665-16.086-5.627-3-11.468-5.605-17.206-8.4-8.046-3.92-15.126-9.143-20.898-15.994-6.853-8.135-13.155-16.658-17.823-26.296-4.187-8.644-4.353-17.218-.586-26.103 3.359-7.92 7.809-14.985 14.197-20.755 1.16-1.05 2.565-2.166 4.015-2.453 1.329-.262 3.155.203 4.2 1.044.517.418.138 2.619-.462 3.645-4.474 7.628-9.07 15.207-10.238 24.19-.679 5.22-1.142 10.485 1.998 15.28 4.007 6.122 7.708 12.457 11.95 18.41 3.245 4.554 7.669 7.993 12.687 10.576 3.897 2.006 6.917.67 8.184-3.442 2.399-7.778 3.631-15.557 2.97-23.83-.718-8.982-.256-18.06-.263-27.097-.013-12.886-.386-25.788.118-38.652.804-20.547 9.112-37.925 23.739-52.314 1.432-1.407 3.092-2.425 4.978-.926 1.87 1.486 1.2 3.338.301 5.099-.127.25-.283.495-.466.706-9.313 10.699-11.278 24.234-14.57 37.305-2.783 11.049-.884 22.047-.325 33.079.31 6.106.66 12.215.795 18.327.307 13.83.525 27.662.712 41.495.081 6.072 2.645 11.287 5.677 16.25.947 1.549 3 2.493 4.671 3.514 5.212 3.182 10.557 6.152 15.693 9.448 2.005 1.286 3.567 1.112 4.976-.436 3.736-4.105 7.302-8.343 8.984-13.809 7.383-24.023 14.752-48.049 22.195-72.053 4.147-13.375 9.156-26.39 16.865-38.2.98-1.503 1.793-3.878 4.142-2.822 2.431 1.092 2.252 3.437 1.37 5.61-6.461 15.902-11.138 32.38-15.216 49.002-2.854 11.637-4.861 23.483-7.205 35.243-1.814 9.1-4.092 18.15-5.182 27.34-1.013 8.556-.779 17.266-.951 25.911-.021 1.103.545 2.465 1.294 3.3 13.705 15.27 21 33.863 27.559 52.844.183.532.403 1.05.607 1.58.171-.05.428-.048.483-.152 4.587-8.793 9.457-17.46 11.299-27.41.211-1.147 1.528-2.09 2.335-3.128.894.902 2.352 1.675 2.592 2.724a33.274 33.274 0 01-.847 17.797c-3.173 9.697-6.975 19.187-10.426 28.797-.62 1.727-1.118 3.597-1.155 5.414-.116 5.643 0 11.294.063 16.941.016 1.396.176 2.79.294 4.559 2.04-.18 3.86-.456 5.684-.483 14.024-.2 28.052-.658 42.065-.334 4.296.098 6.603-1.363 9.057-4.38 6.1-7.495 11.657-15.204 13.552-24.958.359-1.854 1.833-2.292 3.453-2.142 3.268.302 6.52.853 9.793 1.015 1.57.076 3.64.038 4.688-.868 12.878-11.138 25.778-22.265 38.312-33.786 6.481-5.959 12.248-12.698 18.628-19.39-9.997-4.616-19.553-8.887-28.985-13.415-18.787-9.017-37.64-17.913-56.204-27.373-11.319-5.77-19.94-14.936-27.867-24.763-5.844-7.246-12.023-14.222-18.033-21.336-.906-1.074-2.086-2.13-2.447-3.393-.384-1.34-.456-3.277.262-4.305 1.097-1.568 2.897-.83 4.225.26 7.627 6.262 15.708 12.067 22.75 18.935 15.04 14.664 31.921 26.472 50.715 35.76 8.793 4.347 17.805 6.059 27.534 4.94 7.448-.856 10.172-5.366 11.222-12.297 1.657-10.947 3.06-21.934 4.828-32.864 1.919-11.878 1.741-23.766 1.042-35.713-1.222-20.84-7.522-40.268-15.976-59.136-.039-.084-.102-.174-.098-.262.049-1.662.107-3.324.163-4.987 1.437.682 3.2 1.037 4.26 2.098 8.17 8.175 12.653 18.494 16.58 29.12 5.266 14.254 7.402 29.082 7.835 44.165.303 10.525.784 21.113-.015 31.582-.84 11.027-3.364 21.918-4.623 32.928-.491 4.29.384 8.752.831 13.115.076.74 1.023 1.565 1.768 2.032 2.865 1.792 5.825 3.43 8.716 5.176 1.353.818 2.224.485 3.422-.549 7.346-6.33 10.182-15.02 13.19-23.785 3.383-9.855 4.529-20.075 6.124-30.251 2.076-13.249 4.339-26.467 6.473-39.707 1.67-10.355 3.266-20.723 4.902-31.084.088-.555.14-1.156.401-1.632.423-.771.874-1.738 1.575-2.064.384-.178 1.54.638 1.923 1.266.713 1.173 1.375 2.49 1.605 3.827 2.408 13.92 2.203 27.928.756 41.899-1.499 14.472-3.215 28.93-5.28 43.33-1.367 9.546-3.324 19.019-5.372 28.448-1.567 7.212-3.266 14.45-5.67 21.412-3.306 9.582-9.744 17.298-16.482 24.702-8.424 9.259-16.882 18.49-25.318 27.735-.819.899-1.597 1.828-2.085 3.205.844-.468 1.663-.997 2.54-1.394 7.5-3.415 15.01-6.813 22.53-10.189.765-.343 1.595-.563 2.415-.753 4.008-.921 5.042-.372 6.02 3.67 1.41 5.803 3.314 11.592 3.82 17.49.922 10.79-3.126 20.686-7.347 30.339-9.89 22.62-26.949 37.063-50.674 43.717-3.853 1.081-5.283 5.197-3.057 8.428 9.565 13.891 20.15 26.939 31.35 39.558 17.12 19.29 38.042 32.155 62.779 39.022 5.296 1.47 10.362 4.174 16.11 3.399 12.063-1.627 24.026.565 36.038.767 10.064.17 20.143-.038 30.202-.438 22.667-.902 45.348-2.212 68.01-.733 17.6 1.149 34.722 4.883 49.444 15.28 0 0-26.614 151.13-46.9 194.215C639.982 719.903 523.81 828 523.81 828z"/></svg>
