<svg xmlns="http://www.w3.org/2000/svg" viewBox="0 0 400.56 561.89" version="1.0"><path d="M204.83 561.07c-9.47-1.39-12.07-3.02-18.52-11.58-3.25-4.31-7.58-10.02-9.61-12.67-2.04-2.65-3.7-5.54-3.7-6.41 0-.88-.74-3.26-1.64-5.3-1.48-3.37-2.08-3.77-6.35-4.28-2.95-.35-6.31 0-9.01.93-2.37.82-4.87 1.27-5.56 1-1.38-.53-2.41 2.34-2.43 6.82-.02 4.5-3.68 11.19-6.85 12.5-1.52.63-4.54 1.15-6.71 1.17-12.91.07-18.21.62-21.15 2.19-3.72 1.99-8.51 2.2-11.62.53-1.2-.65-4.892-1.21-8.207-1.25-8.507-.1-15.12-3.6-18.491-9.79-3.393-6.23-11.678-12.79-16.125-12.77-4.742.02-5.657.94-5.497 5.49l.14 4-8.168.29c-6.954.24-9.479-.17-17-2.75-5.129-1.76-10.928-3.04-13.832-3.05-2.75-.01-5.513-.35-6.14-.76C6.228 524.01 0 512.32 0 509.7c0-5.94 2.41-8.92 12.607-15.56 6.165-4.02 13.002-9.66 18.143-14.97 4.537-4.68 8.25-8.81 8.25-9.17 0-.35-1.687-.26-3.749.2-4.265.96-6.237-.16-4.324-2.46.683-.83 1.863-7.26 2.622-14.3 2.091-19.38 3.633-25.05 8.938-32.87 2.818-4.15 3.187-8.52 1.146-13.55-.752-1.86-1.651-6.24-1.998-9.75l-.631-6.38 3.748.63c2.061.34 4.74.9 5.952 1.23 2.055.56 2.168.34 1.667-3.25-.295-2.12-.993-5.06-1.55-6.54-1.473-3.91-.301-5.11 3.214-3.3l2.921 1.52-.579-2.9c-.699-3.49 1.153-5.03 3.381-2.8 1.421 1.42 1.782 1.1 3.904-3.49 1.286-2.77 2.338-5.61 2.338-6.31 0-2.22 8.534-21.04 11.578-25.53 1.607-2.38 3.597-4.63 4.422-5 4.635-2.12 5.53-2.96 5.824-5.43.214-1.81.781-2.56 1.677-2.21 2.051.79 3.668-1.84 2.934-4.77-.993-3.95 1.367-3.27 6.732 1.95 4.813 4.68 6.593 4.6 5.373-.23-.47-1.86-.09-3.08 1.37-4.44 2.24-2.09 4.09-2.44 4.09-.78 0 .6 3.26-1.93 7.25-5.62 9.18-8.51 23.34-19.1 31.75-23.75 3.58-1.98 7.97-4.96 9.77-6.62s3.88-3.38 4.63-3.81c.75-.44 3.48-4.39 6.07-8.79s5.41-8.79 6.28-9.76c1.26-1.41 1.35-2.24.43-4.25-1.23-2.7-3.09-3.19-4.96-1.31-1.59 1.59-2.22.77-3.37-4.35-.97-4.31-.27-13.83 1.01-13.83.37 0 2.42 1.18 4.55 2.63l3.87 2.63-.58-2.38c-2.95-11.95-.97-30.78 4.61-43.88 2.85-6.71 3.09-8.01 2.27-12.26-.67-3.48-1.34-4.69-2.5-4.5-1.22.2-1.7-.93-2.1-4.93-.53-5.28-1.98-8.5-1.98-4.4 0 4.46-2.4 1.35-4.42-5.71-1.39-4.88-2.5-7.11-3.45-6.94-.78.13-2.56-1.79-3.97-4.26-2.12-3.74-2.54-5.72-2.47-11.72.06-4.9-.27-7.14-1.05-7-.71.14-1.26-1.8-1.45-5.11l-.3-5.33-4.37 4.69c-2.4 2.57-4.84 4.39-5.42 4.03-1.73-1.07-7.95-12.82-10.15-19.16-5.49-15.859-2.43-42.894 7.33-64.715 3.37-7.543 6.38-9.816 14.68-11.093 2.45-.377 6.36-1.53 8.7-2.562 3.8-1.682 4.72-2.837 8.88-11.107 7.77-15.468 12.41-21.926 15.78-21.926 1.08 0 4.42 2.101 7.43 4.67 5.97 5.1 8.57 9.934 10.64 19.812.7 3.31 1.78 6.978 2.41 8.15 1.48 2.763 6.94 3.783 12.39 2.316 5.29-1.425 13.08-1.408 15.77.033 3.08 1.646 11.96-1.675 13.32-4.981 6.61-16.037 12.63-27.787 15.34-29.92 4.07-3.198 13.62-2.912 20 .6 7.24 3.979 8.93 5.482 15.44 13.736 3.27 4.143 7.25 8.21 8.85 9.036 1.6.828 6.73 1.94 11.4 2.47 10.58 1.202 14.23 2.71 18.79 7.764 2.99 3.308 3.72 5.006 4.26 9.903.67 6.126-.53 19.241-2.33 25.51-.57 1.98-3.37 7.38-6.22 12-7.03 11.397-12.81 22.703-12.81 25.033 0 3.27-5.79 20.03-9.23 26.73-3.68 7.17-10.02 14.9-13.21 16.11-1.59.61-2.58 2.58-3.95 7.88-1.01 3.89-2.45 7.88-3.19 8.86-.75.98-1.37 2.75-1.39 3.92-.02 1.28-.83 2.34-2.03 2.66-1.4.36-2 1.37-2.02 3.36-.02 4.25-1.42 6.06-3.4 4.41-1.39-1.15-1.58-.89-1.58 2.11 0 4.91-1.93 6.52-4.31 3.6l-1.85-2.27.53 2.5c.29 1.37.84 6.66 1.22 11.75.61 8.03.49 9.25-.87 9.25-.87 0-1.78-.79-2.03-1.75-.25-.97-.52.05-.59 2.25-.06 2.2-.4 5.68-.74 7.75-.55 3.31-.38 3.75 1.43 3.75 1.12 0 2.97 1.23 4.09 2.75 1.99 2.66 2.06 2.67 2.09.5.05-3.35 2.04-2.8 10.57 2.9l7.71 5.16-.67 7.34c-.51 5.68-.37 7.35.63 7.35 6.23.03 15.79 6.33 15.79 10.41 0 3.16-2.37 6.04-4.36 5.28-1.35-.52-1.64.07-1.64 3.34 0 3.72.18 3.97 2.92 3.97 3.21 0 8.61 3.94 9.58 6.98.33 1.06-.32 3.7-1.47 5.97-1.95 3.82-1.98 4.24-.47 7.16 1.52 2.95 1.47 3.55-1.09 11.75-1.48 4.75-3.77 10.77-5.1 13.39l-2.4 4.75h2.76c4.26.01 8.97 3.37 9.76 6.96.75 3.41-.69 6.04-3.3 6.04-1.15 0-.86.74 1.12 2.8 3.43 3.58 3.38 4.57-.4 7.26l-3.08 2.2-4.91-2.3c-2.7-1.27-5.18-2.03-5.51-1.7s1.23 5.19 3.47 10.8c4 10.02 4.43 13.27 1.44 10.79-1.32-1.1-1.4-.64-.66 3.7 1.14 6.69 1.06 17.83-.12 18.45-.53.27-1.93-.94-3.11-2.7l-2.16-3.19-.62 5.93c-.34 3.26-.21 6.95.29 8.2 2.08 5.15 10.97 34.91 12.93 43.26 1.16 4.95 2.58 13.24 3.15 18.43.83 7.49 1.68 10.57 4.17 15 4.62 8.23 9.48 13.86 13.92 16.12l3.94 2.01 3.65-2.78c2.99-2.28 4.55-2.75 8.72-2.61 2.79.09 5.98.19 7.08.23s4.38-.19 7.3-.52c4.6-.51 5.82-.24 9.24 2.02 4.63 3.07 8.93 10.87 11.39 20.66 2.37 9.44.86 22.63-3.14 27.44-1.54 1.85-3.53 4.4-4.43 5.68l-1.63 2.32-26.12-.22c-15.62-.13-26.89-.63-28.05-1.25-1.06-.57-6.95-5.04-13.09-9.93s-13.49-10.13-16.32-11.64c-7.28-3.89-8.65-5.32-8.65-8.98 0-8.19-10.7-33-21.13-48.98-2.87-4.4-8.26-10.98-11.98-14.62-5.5-5.38-7.55-6.73-11.01-7.29-3.79-.6-4.8-.29-9.39 2.87-2.82 1.94-5.88 3.54-6.79 3.54-1.57 0-7.76 2.58-17.64 7.35-2.44 1.18-4.63 2.75-4.87 3.49-.33 1.07.01 1.12 1.63.25 3.35-1.79 7.57-1.26 11.18 1.41 1.86 1.37 4.24 2.5 5.29 2.5 3.25 0 7.65 3.95 10.37 9.31 2.2 4.34 2.59 6.4 2.54 13.36-.05 5.93-.62 9.48-2.05 12.71l-1.98 4.48 2.82.98c1.55.54 4.65 2.65 6.9 4.68 2.48 2.24 4.69 3.47 5.61 3.11 2.26-.86 6.12 1.25 7.39 4.02.68 1.5 1.11 9.39 1.11 20.49v18.05l-3.16 2.96c-1.81 1.68-4.06 2.84-5.25 2.7-1.15-.14-3.21.36-4.59 1.12-1.38.75-4.91 1.3-7.86 1.23-3.16-.09-6.59.5-8.38 1.42-3.58 1.85-10.88 1.14-12.88-1.26-1.1-1.33-1.42-1.34-2.33-.12-2.72 3.69-6.12 4.24-16.72 2.68zm12.93-2.74c1.62-1.05 3.62-17.13 2.95-23.68-.66-6.35-2.11-9.37-6.01-12.5-3.66-2.94-11.27-3.47-14.39-1-1.05.82-.85.48.45-.75 3.72-3.56 11.13-3.17 15.68.83 4.53 3.97 5.55 7.9 5.56 21.42l.01 11 3.5 2.38c2.71 1.85 4.3 2.25 7.12 1.79 7.34-1.19 9.36-5.66 9.35-20.67-.01-18.72-6.83-32.99-15.78-33-2.76 0-7.85 2.46-10.95 5.29-1.24 1.13-2.25 1.64-2.24 1.13 0-.51 1.58-1.99 3.5-3.3 3.97-2.71 4.27-3.64 1.64-5.05-5.05-2.7-8.22-49.33-4.61-67.74.84-4.31 2.18-13.01 2.97-19.33 1.65-13.24 2.75-17.61 4.35-17.25 2.46.54.92-1.57-3.41-4.68-4.88-3.5-5.57-6.34-1.69-6.89 5.22-.75.64-4.38-7.69-6.11-2.99-.62-6.03-1.62-6.75-2.22-2.15-1.79-1.55-6.29 1.17-8.84 1.78-1.68 2.2-2.69 1.46-3.57-.56-.68-.89-1.79-.74-2.48.17-.73-1.57-1.75-4.21-2.46-11.62-3.14-14.65-6.05-9.25-8.89l2.75-1.44-2.71-.69c-3.78-.95-5.22-2.88-3.32-4.46 1.32-1.09 1.26-1.55-.48-3.77-1.1-1.39-1.99-3.35-1.99-4.35 0-1.01-.94-2.34-2.1-2.96-1.63-.87-2-1.82-1.65-4.28.24-1.74.77-3.92 1.18-4.84.58-1.34.31-1.57-1.33-1.14-2.44.64-3.49-1.52-4.56-9.34-.52-3.8-1.19-5.28-2.54-5.63-2.35-.62-3.77-8.73-2.15-12.29 1.06-2.32.95-2.43-2.62-2.54-2.05-.07-4.12-.05-4.6.04-.82.15-.23-5.03 1.06-9.38.56-1.89.48-1.9-1.81-.27-1.31.93-6.66 4.14-11.88 7.14-5.22 2.99-10.5 6.38-11.72 7.52-1.21 1.14-3.91 3.23-6 4.64-2.08 1.41-8 6.47-13.17 11.24-5.16 4.78-9.73 8.59-10.15 8.47-.82-.23-3.96 5.8-3.96 7.62 0 2.4-3.49.88-6.773-2.95-1.906-2.23-3.637-3.88-3.848-3.67-.21.21.265 2.54 1.056 5.17l1.438 4.78-2.436-2.29c-1.34-1.26-2.437-1.78-2.437-1.15s-.639.9-1.42.6c-.935-.36-1.534.25-1.75 1.78-.228 1.61-1.101 2.43-2.83 2.66-1.375.19-3.718 1.49-5.206 2.9-3.121 2.95-10.032 18.26-14.787 32.77-1.804 5.5-3.451 10.19-3.66 10.43s-.913-.1-1.564-.75c-2.074-2.07-2.783-1.29-2.788 3.07l-.005 4.25-2.555-3-2.555-3 .509 3.5c1.972 13.53 1.972 13.07-.024 12.32-1.026-.38-3.215-1.51-4.865-2.51-1.65-.99-3.402-1.81-3.892-1.81-1.118 0 .011 11.42 1.381 13.98 1.839 3.43 1.165 9.51-1.489 13.42-1.375 2.03-2.5 3.96-2.5 4.29 0 .34-1.075 2.91-2.389 5.71-2.849 6.08-3.674 10.61-4.494 24.7l-.617 10.6 4.25-.48c4.48-.51 5.118.21 2.893 3.25-2.408 3.29.443 12.08 8.937 27.53 2.873 5.22 5.945 11.98 6.827 15.02 1.286 4.43 2.254 5.88 4.873 7.29 3.612 1.94 8.023 5.91 11.475 10.31 1.24 1.58 3.374 4.29 4.743 6.01 3.088 3.89 10.919 7.73 14.13 6.92 3.183-.8 3.861-3.87 3.867-17.55.005-10.37-.258-12.06-2.65-17.17-3.033-6.47-5.599-8.29-10.399-7.39-2.943.55-3.769 1.48-6.895 7.73-4.051 8.09-4.877 7.51-.99-.71 2.62-5.54 6.804-9.46 10.093-9.46 1.015-.01 3.466-1.73 5.446-3.83 4.001-4.25 9.94-6.44 16.4-6.03 2.2.14 5.71.17 7.79.06l3.8-.2-.4-6.75c-.6-10.19.17-16.24 1.98-15.55 1.19.46 1.36-.16.9-3.32l-.57-3.88 1.94 3.99c1.29 2.65 2.11 3.49 2.45 2.5 2.07-6.03 2.72-11.14 2.12-16.7-.37-3.46-.45-6.29-.19-6.29.27 0 1.42 1.46 2.56 3.25l2.09 3.25-.06-5.5c-.02-3.03-1.08-9.55-2.34-14.5s-2.17-9.15-2.02-9.33 1.45.44 2.89 1.38c6.88 4.51 2.92-4.11-7.45-16.22-3.84-4.49-6.99-8.38-6.99-8.65s.9-.26 2 .03c2.97.77 2.42-.44-1-2.21-3-1.55-3-1.55-3.03-10.78-.04-8-.8-14.25-3.35-27.22-.32-1.65.08-.98.91 1.5 2.3 6.93 4.62 21.75 4.37 27.93-.21 5.23.01 5.79 3.54 9.32 2.07 2.06 3.89 3.75 4.05 3.75.15 0 .6-2.12.99-4.71.81-5.42 3.88-12.45 6.33-14.52 3.14-2.64 9.92-4.22 12.69-2.95 2.25 1.02 2.51.91 2.62-1.09.09-1.78.27-1.63.88.77.42 1.65.79 3.9.82 5 .05 1.87 0 1.86-.81-.15-1.08-2.66-7.65-5.11-9.3-3.46-.61.61-2.11 1.11-3.34 1.11-1.32 0-3.07 1.18-4.28 2.87-2.23 3.13-5.09 12.87-5.09 17.34 0 3.27-.22 3.33-3.79 1.04-1.49-.95.56 1.86 4.56 6.25 7.17 7.89 10.16 13.62 8.87 16.99-.43 1.11-1.28 1.44-2.64 1.01-2.43-.78-2.44-1.51.09 9.13 2.79 11.77 1.48 24.45-1.77 17.15-.82-1.84-1.1-1.12-1.61 4.25-.35 3.56-1.38 8.94-2.3 11.97-1.37 4.5-1.82 5.13-2.47 3.5-.44-1.1-.83-1.61-.87-1.13s-.75.31-1.57-.37c-1.32-1.1-1.5.1-1.5 9.87 0 10.39.13 11.13 1.96 11.13 1.08 0 3.67 1.74 5.75 3.87 2.53 2.59 5.05 4.1 7.6 4.56 2.09.37 4.64 1.52 5.67 2.55 1.91 1.9 4.5 9.52 5.53 16.27.48 3.08.99 3.75 2.89 3.75 5.51 0 8.03-1.88 10.44-7.78 1.29-3.15 2.79-7.52 3.34-9.72s2.28-6.58 3.83-9.72c2.69-5.44 2.76-5.95 1.52-10.5-.71-2.63-1.85-6.13-2.51-7.78-3.17-7.86-8.23-26.83-9.07-34-2.17-18.54-2.91-21.92-5.89-26.71-2.85-4.58-2.92-4.99-1.94-11.03.56-3.44.78-8.29.49-10.76-.48-3.99-.42-4.16.47-1.5.57 1.69.74 6.37.4 10.75-.53 6.68-.35 8.12 1.32 10.5 2.25 3.17 7.2 22.08 7.2 27.47 0 5.49 2.47 16.05 6.5 27.78 6.65 19.32 7.77 25.78 7.15 41-.43 10.57-.24 14.04.87 16 .77 1.37 1.43 3.48 1.44 4.69.02 1.2 2.19 5.03 4.82 8.5 2.62 3.47 5.5 7.43 6.39 8.81 4.26 6.6 8.38 10.12 13.33 11.39 5.89 1.51 15.47 1.95 17.26.79zm-68.6-173.18c0-1.38.22-1.94.5-1.25.28.68.28 1.81 0 2.5-.28.68-.5.12-.5-1.25zm-3.38-15.5c-.34-1.65-.23-3.14.24-3.31.46-.18.26-1.98-.46-4.02-.72-2.03-1.63-5.65-2.04-8.03-.67-4.01-.59-4.25 1.14-3.33 2.53 1.36 5.79 5.07 5.08 5.78-.32.32-1.08-.36-1.69-1.51-.62-1.14-1.75-2.08-2.52-2.08-1.16 0-1.07 1.18.47 6.75 1.03 3.71 2.2 7.61 2.6 8.66.49 1.28.38 1.69-.35 1.24-.61-.38-1.27.11-1.47 1.08-.25 1.17-.59.75-1-1.23zm5.09-10c-.35-.55-.21-3.93.31-7.5.86-5.87.62-13.32-.72-22.28l-.49-3.22 1.44 3.5c.85 2.06 1.43 6.78 1.42 11.5-.03 9.65-1.09 19.37-1.96 18zm100.84 194.69c3.24-2.05 5.3-30.6 2.8-38.9-2-6.66-5.64-10.95-10.54-12.42-3.28-.98-4.28-.9-6.46.53l-2.58 1.69 1.89 2.7c4.22 6.02 6.45 14.32 6.91 25.71.25 6.05-.02 13.01-.58 15.47-.78 3.34-.74 4.67.16 5.24 1.55.98 6.85.98 8.4-.02zm10.25-4.13c1.46-2.72 1.36-34.27-.12-37.52-.77-1.69-1.96-2.54-3.55-2.54-2.23 0-2.33.24-1.59 3.75.88 4.1.72 27.22-.23 34-.56 4.03-.46 4.25 1.93 4.25 1.48 0 2.96-.81 3.56-1.94zm-148.28-8.47c2.71-2.33 2.81-2.76 3.16-13.79.72-22.77-2.64-36.17-9.58-38.16-2.65-.76-4.1-.48-7.998 1.52-2.653 1.36-5.337 3.63-6.061 5.13-1.154 2.38-1.024 3.16 1.165 6.95 5.082 8.79 7.234 24.03 4.784 33.94-.863 3.5-.751 3.76 2.22 5.23 4.61 2.27 9.06 1.98 12.31-.82zm15.72-1.73c3.21-1.46 4.09-7.71 3.34-23.88-.55-12.05-2.8-19.99-6.58-23.28-1.77-1.55-11.93-4.27-12.77-3.42-.28.27.4 2.2 1.51 4.28 3.31 6.17 4.26 13.42 3.92 29.89-.3 14.64-.21 15.52 1.68 16.44 2.74 1.33 5.93 1.32 8.9-.03zm12.58-2.07c3.12-3.35 4.3-9.33 3.76-19-.62-11.14-3.58-17.82-8.51-19.19-1.79-.49-3.48-.68-3.75-.41-.27.26-.02 2.92.55 5.89 1.22 6.34 1.13 29.36-.12 32.65-.79 2.08-.58 2.27 2.58 2.27 2.25 0 4.14-.76 5.49-2.21zm246.56-.45c2.14-.82 3.73-7.04 3.02-11.79-1.45-9.69-11.56-19.56-20.01-19.54-4.47.01-13.13 3.65-15.7 6.59-.9 1.05-1.86 2.8-2.13 3.9-.36 1.47-.52 1.24-.6-.85-.16-3.87 4.17-7.75 11.08-9.93 7.69-2.42 10.69-2.17 16.35 1.37 8.16 5.1 12.45 11.85 12.45 19.58 0 4.43.11 4.64 1.66 3.1 2.25-2.26 3.41-11.82 2.39-19.75-1.77-13.76-8.06-24.21-15.19-25.26-3.5-.51-14.25 2.84-18.2 5.67-6.65 4.77-7.15 4.94-3.71 1.26 1.89-2.03 3.94-3.69 4.56-3.69.61 0 1.98-.66 3.05-1.47 1.8-1.36 1.61-1.47-2.56-1.48-5.45-.01-10.53 3.18-8 5.02 2.89 2.1-7.34-.08-11.16-2.37-4.76-2.86-10.85-10.35-14.88-18.28-2.52-4.97-3.4-8.29-4.11-15.62-.86-8.85-4.52-23.7-12.41-50.3-3.54-11.95-3.55-12.05-2.48-21.94.59-5.46 1.26-10.11 1.48-10.34.23-.23 1.37 1.32 2.53 3.43l2.12 3.85-.44-6.19c-.54-7.51-1.12-8.67-3.64-7.32-1.04.56-3.6 1.02-5.69 1.04-2.26.02-4.76.82-6.12 1.95-2.19 1.83-2.23 2.07-.75 4.92.85 1.65 1.55 4.84 1.55 7.09 0 4.98-2.7 7.86-10.33 11.03-4.58 1.91-5.43 2.75-7.47 7.39l-2.3 5.25 1.98 5.42c2.95 8.09 4.12 18.06 4.12 35.24 0 11.46.39 16.36 1.5 19.02.83 1.98 1.5 6.6 1.5 10.31 0 5.49.71 8.45 3.89 16.28 2.14 5.26 4.15 11.75 4.46 14.41.69 5.9 1.62 7.1 8.05 10.36 6.06 3.07 10.52 6.47 21.09 16.07l8.01 7.27 24.84-.09c13.66-.04 25.45-.32 26.2-.61zM51 528.51c0-.89-.854-3.03-1.899-4.75-1.044-1.71-2.445-5.81-3.114-9.11-1.611-7.96-3.025-10.49-8.594-15.39-4.914-4.32-5.072-5.04-.593-2.7 5.475 2.86 8.155 6.86 9.761 14.56 1.91 9.16 3.047 11.42 5.266 10.46.92-.39 2.91-.93 4.423-1.19 1.512-.26 2.75-.6 2.75-.75 0-.16-.944-3.37-2.098-7.14-3.359-10.98-7.841-16.65-7.932-10.04-.03 2.14-.055 2.14-1.165.19-1.511-2.67-2.812-3.44-4.628-2.74-1.032.39-1.259.18-.724-.69.431-.69 1.862-1.06 3.188-.8 1.324.25 2.632.09 2.907-.35.275-.45-1.134-4.32-3.131-8.62-1.997-4.29-3.868-9.49-4.156-11.55-.288-2.07-.687-3.75-.886-3.75s-4.302 3.96-9.118 8.8c-5.775 5.81-11.14 10.11-15.757 12.63C1.943 503 .055 507.33 6.096 517.15c3.63 5.9 5.337 7 10.87 7 2.253 0 6.895.95 10.316 2.12 6.013 2.06 13.735 3.47 20.468 3.75 2.393.09 3.25-.3 3.25-1.51zm120.78-23.11c.18-8.38-.09-13.25-.73-13.25-1.29 0-4.05 5.32-4.05 7.82 0 1.06-1.08 4.38-2.41 7.37-3.67 8.3-3.68 10.13-.09 10.94 7.09 1.58 6.97 1.78 7.28-12.88zm64.93-4.09c9.08-7.77 9.53-27.47.83-36.68-3.53-3.75-8.35-4.94-7.03-1.73 1.79 4.37 3.33 11.75 3.98 19.16.64 7.17.47 8.54-1.45 12.24-1.2 2.29-3.37 5.1-4.84 6.26l-2.66 2.09 3.48.62c1.91.34 3.7.65 3.98.7s1.95-1.14 3.71-2.66zm-10.32-1.26c1.47-1.15 3.6-3.92 4.74-6.15 1.75-3.43 1.96-5.09 1.39-10.66-1.55-15.05-5.28-25.74-9.33-26.76-3.85-.97-9.61 2.44-10.01 5.92-.25 2.24.08 2.75 1.83 2.75 3.02 0 7.6 4.93 8.89 9.58.6 2.15 1.09 7.34 1.09 11.53.01 6.47-.36 8.16-2.49 11.29-1.38 2.03-2.5 3.89-2.5 4.14 0 1.25 4.04.21 6.39-1.64zm-5.24-3.15c.69-1.29 1.24-6.34 1.28-11.83.05-8.84-.15-9.91-2.7-13.75-1.52-2.3-3.49-4.17-4.38-4.17-1.75 0-1.76-.17.53 20 1.38 12.18 2.67 14.55 5.27 9.75zm67.68-32.13c-.92-2.21-1.22-7.65-1.05-18.62.19-11.51-.17-17.44-1.4-23-2.61-11.84-3.31-14.4-4.39-16-.85-1.28-1.31-1.13-3.05 1l-2.05 2.5.51-5.5.5-5.5-1.74 7c-1.52 6.13-1.88 6.75-2.88 5-1.26-2.2-1.17-2.34-3.28 5-.63 2.2-1.65 5.31-2.26 6.91l-1.12 2.92-1.06-3.01-1.06-3.01-3.63 7.35-3.63 7.36 4.93 3.92c6.91 5.51 15.94 16.59 22.09 27.15l5.24 8.99.32-3.67c.17-2.02-.27-5.08-.99-6.79zM223 447.37c3.02-1.13 6.85-2.76 8.5-3.63s3.74-1.58 4.64-1.59c.9 0 3.93-1.58 6.72-3.5 3.35-2.3 6.25-3.5 8.46-3.5 4.36 0 5.73-1.65 9.98-11.91 3.34-8.08 3.5-8.29 4.17-5.24.98 4.48 2.1 3.18 4.17-4.86 1.65-6.39 3.36-9.19 3.36-5.49 0 .82.36 1.5.8 1.5.45 0 1.39-3.43 2.09-7.62 1.42-8.45 3.34-8.96 3.51-.93.06 2.5.21 4.55.34 4.55s1.58-2.68 3.23-5.95c2.55-5.04 2.91-6.66 2.37-10.61-.52-3.79-1.21-5.01-3.74-6.55-5.12-3.11-6.6-2.57-6.6 2.42 0 6.49-1.65 8.12-7.34 7.26-2.56-.38-4.66-1.14-4.66-1.68s-2.12.63-4.7 2.61c-3.14 2.39-5.56 3.49-7.25 3.29-2.19-.25-2.59-.85-2.87-4.29-.46-5.82-1.68-6.22-1.68-.55-.01 3.35-.6 5.49-1.91 6.95-2.68 2.96-6.95 2.73-9.05-.49-1.61-2.45-1.79-2.5-3.58-.88-1.22 1.11-2.95 1.55-4.92 1.26-2.64-.39-3.04-.14-3.04 1.88 0 2.46-1.53 3.18-2.28 1.08-1.04-2.91-2.01.96-3.81 15.2-1.05 8.3-2.35 17-2.89 19.32-.53 2.33-.98 7.11-1 10.63-.02 6.02.09 6.31 1.73 4.88.96-.84 4.23-2.44 7.25-3.56zm18.6-48.99c1.87-1.24 3.4-4.95 3.4-8.21 0-2.33-1.2-4.39-4.75-8.21l-4.75-5.1 3.5 1.76c6.31 3.16 10 7.46 10 11.66 0 2.06.47 4.04 1.04 4.39 2.06 1.28 11.96-6.63 11.96-9.54 0-1.52-2.47-3.99-18-17.98-3.02-2.73-5.16-4.97-4.75-4.98s2.53 1.59 4.71 3.56 4.42 3.3 4.97 2.96c.56-.35 1.52-2.32 2.14-4.39.99-3.3.79-4.74-1.61-11.49-1.51-4.24-3.16-7.98-3.69-8.3-1.15-.71-6.8 4.63-10.42 9.85-1.46 2.1-2.85 3.62-3.09 3.38-.25-.25.98-2.54 2.74-5.09 1.76-2.56 3.04-4.75 2.85-4.89-6.69-4.68-16.31-9.57-19.87-10.1-3.83-.57-4.82-.35-6.42 1.42-1.66 1.84-1.76 2.66-.81 6.81.59 2.6.85 5.09.58 5.54-.28.44-2.46-1-4.86-3.2-2.39-2.21-5.54-4.31-7-4.68-2.72-.68-9.97.98-10.91 2.51-.3.47 1.82 1.88 4.7 3.14l5.24 2.29-3.98.86c-2.19.48-4.41 1.29-4.93 1.81-1.25 1.24 4.11 3.45 13.53 5.56 8.49 1.91 11.8 3.34 7.88 3.41-1.38.03-3.18.48-4 1.02-1.15.74-.77.97 1.6.98 4.48.02 9.4 1.97 9.4 3.72 0 .97-.57 1.29-1.59.9-6.71-2.57-12.8-1.42-14.34 2.71-1.31 3.54-.31 4.41 7.15 6.24 3.88.95 7.97 2.64 9.07 3.74 2.53 2.52 4.5 1.5 7.07-3.68l1.87-3.75-2.95-3.68c-3.51-4.38-4.92-6.92-6.81-12.27-1.79-5.06-.74-4.4 4.05 2.56 2.1 3.04 4.19 5.53 4.65 5.53 1.63 0 1.3-7.11-.7-14.96-.76-3-1.21-5.63-1-5.84.89-.9 3.68 6.3 4.23 10.93.5 4.24.88 4.95 2.43 4.54 1.54-.4 1.67-.17.81 1.45-1.31 2.44-.49 3.73 3.43 5.44l3.13 1.36-3.5.05c-4.72.08-5.69.87-6.54 5.37-.95 5.08-7.1 11.66-10.89 11.66-3.65 0-2.96 1.7 2.34 5.75 2.82 2.16 5.36 3.25 7.56 3.25 3.83 0 4.49-1.12 4.62-7.84l.09-4.66 1.83 5.83c1.66 5.29 4.35 9.69 5.89 9.65.33-.01 1.1-.34 1.7-.75zm51.69-9.35c5.62-2.81 8.71-5.78 8.69-8.31-.01-1.14-.94-4.08-2.05-6.54l-2.03-4.47 3.25-2.84c2.42-2.11 3.88-2.68 5.71-2.22 3.27.82 7.9-1.21 8.8-3.86.89-2.63.67-4.59-1.31-11.63l-1.54-5.49-1.66 2.99-1.65 2.99-.31-3.25c-.18-1.79-.74-3.25-1.25-3.25-.52 0-.94-.9-.94-2s-.41-2-.92-2c-1.06 0-1.61 2.41-3.06 13.5-.58 4.4-1.54 9.51-2.15 11.35-.98 3.01-1.39 3.29-3.98 2.77-2.42-.48-2.89-.25-2.89 1.43 0 2.38-2.86 3.79-3.99 1.96-.55-.89-1.32-.16-2.51 2.35-2.18 4.6-2.92 4.62-2.18.08.69-4.3-1.88-7.81-6.96-9.49-3.79-1.25-6.09-.74-9.78 2.16-5.31 4.18-2.14 8.73 9.27 13.33 6.91 2.78 9.15 5.09 9.15 9.44 0 1.64.81 3.12 1.71 3.12.2 0 2.26-.95 4.58-2.12zm-20.14-3.38c.08-2.48.19-4.94.25-5.47s-2.05-2.33-4.67-3.99c-3.45-2.19-4.94-3.86-5.37-6-.46-2.29-1.64-3.48-5.08-5.15-3.73-1.8-4.64-1.94-5.37-.78-2.26 3.56-.93 6.64 5.68 13.21 5.38 5.37 6.46 6.96 5.89 8.74-.85 2.68.8 3.9 5.27 3.92 3.17.02 3.25-.1 3.4-4.48zm18.48-21.07c.93-1.41 2.25-4.9 2.94-7.75l1.26-5.18.08 7.25c.07 5.5.43 7.25 1.49 7.25 1.75 0 3.31-6.42 4.59-19 .54-5.23.98-10.1.99-10.83s-4.53 3.32-10.09 9c-6.75 6.9-8.32 8.22-4.75 3.99 13.22-15.65 13.59-16.79 4.58-14.29-13.18 3.65-17.59 7.76-18.5 17.23-.42 4.32-.22 4.79 3.01 7.26 3.77 2.88 6.63 3.33 8.7 1.39 1.09-1.03 1.21-.72.68 1.75-.64 2.98-.63 2.99 1.12.87.98-1.18 2.33-2.98 3.02-4 .74-1.12.64-.31-.25 2-2.36 6.1-1.82 7.57 1.13 3.06zm-25.67-.37c1.67-3.11 1.24-6.89-.92-8.04-1.08-.58-3.94-1.32-6.36-1.65-4.15-.57-4.43-.46-4.9 2.01-.62 3.24.6 4.84 5.72 7.47 4.99 2.57 5.2 2.58 6.46.21zm8.82-3.57c.16-.12-.49-1.57-1.44-3.22-1.52-2.64-1.57-3.66-.47-8.59 1.49-6.67 4.94-10.15 13.45-13.61 3.12-1.27 5.68-2.73 5.68-3.24 0-.92-1.98-1.85-11.23-5.25-4.06-1.49-4.9-2.28-5.87-5.51-1.29-4.32-.16-7.54 3-8.54 1.63-.52 1.75-1 .84-3.42-1.49-3.95-.47-5.75 3.69-6.53 3.29-.62 3.53-.9 2.92-3.38-.36-1.49-1.81-4.87-3.23-7.51-2.56-4.79-3.03-4.99-7.37-3.2-1.4.58-1.75.2-1.75-1.89 0-1.43-.45-2.6-1-2.6-1.7 0-1.1-2.38 1.3-5.18 2.04-2.37 2.33-3.85 2.54-13.16.24-10.17.17-10.52-2.05-11.2-2.46-.75-5.79-3.33-5.79-4.48 0-.39 1.35-2.41 3-4.48 4.31-5.43 3.99-7.85-1.28-9.87-2.36-.9-4.87-1.63-5.58-1.63-2.47 0-.6-3.45 3.5-6.47l4.14-3.03-.54-23.04c-.58-24.66-.12-30.2 2.57-31.19.93-.35 2.02-1.11 2.42-1.7.42-.61.75-.16.75 1.06.01 1.26-.76 2.34-1.88 2.63-1.58.41-2.03 1.82-2.64 8.31-.78 8.38.18 36.42 1.41 41.02l.74 2.79 2.2-2.19c2-2.01 2.19-3.18 2.19-13.85v-11.65l2.05 1.85 2.05 1.86-.69-9.2c-.58-7.67-.46-9.2.75-9.2.79 0 1.96.51 2.59 1.14.86.87 1.44 0 2.32-3.5 1.29-5.14 1.64-5.43 3.47-2.92 1.07 1.46 1.36.7 1.99-5.18.66-6.13.89-6.69 2.09-5.04 1.27 1.72 1.4 1.63 1.99-1.29.34-1.72 1.1-3.04 1.68-2.92 1.51.3 3.45-7.18 4.99-19.29l1.35-10.5 1.34 7.25c.74 3.98 1.71 7.25 2.15 7.25 1.55 0 8.95-12.03 11.85-19.26 1.61-4.02 4.06-11.67 5.44-17 2.84-10.906 4.35-14.218 11.38-24.823 8.15-12.307 9.05-14.678 10.34-27.085 1.45-13.82.81-17.828-3.5-22.138-4.05-4.051-8.78-5.517-20.47-6.347-5-.355-8.89-.98-8.64-1.388.26-.409-.64-1.465-1.98-2.347-1.35-.882-5.17-5.111-8.49-9.396C297.03 7.024 290.01 2.6 281.87 2.754c-3.13.06-6.42.391-7.33.737-1.99.764-12.3 22.147-15.92 33.02-3.78 11.331-3.29 24.175 1.05 27.777 2.54 2.107 11.52 1.914 18.55-.398 4.82-1.585 8.73-2.05 16.82-1.999 11.42.071 15.3.848 27.32 5.465l7.85 3.018-6.85 3.704C313 79.673 304.59 91.095 300.59 105c-1.2 4.16-1.25 5.11-.22 4.26.72-.6 1.56-.85 1.87-.54.62.62-1.97 12.52-2.91 13.38-.7.63.34-6.89 1.33-9.62.47-1.29.04-1.09-1.46.67-1.97 2.31-2.13 2.34-2.15.5-.03-3.6 4.57-16.875 7.89-22.752 2.28-4.024 3.41-7.549 3.79-11.75.3-3.3.24-6-.14-6s-1.56 1.911-2.62 4.25c-1.64 3.616-1.94 3.877-2.02 1.75-.05-1.376-.45-3.4-.89-4.5-.71-1.8-1.03-1.598-3.18 2l-2.38 4-.75-7.5c-.41-4.126-.82-8.085-.92-8.799-.11-.9-1.56-1.207-4.75-1l-4.58.298.32 10.5c.27 8.59-.07 11.774-1.84 17.5-3.04 9.793-6.51 16.463-10.53 20.193l-3.44 3.2-1.14-2.2c-3.97-7.66-14.18-15.693-19.94-15.693h-2.13l1.96 3.323c2.67 4.52 5.03 12.06 5.85 18.68.63 5.1 1.1 5.88 6.56 10.85 4.43 4.04 6.85 7.37 9.85 13.57 3.8 7.85 5.16 14.58 2.94 14.58-.71 0-.71.6 0 1.93.57 1.06.99 3.2.94 4.75l-.1 2.82-.78-3c-.43-1.65-1.5-4.65-2.37-6.65-1.56-3.57-1.55-3.64.49-3.11 1.81.48 1.99.23 1.39-1.85-.39-1.31-1.94-5.09-3.45-8.39-2.94-6.43-12.35-17.54-13.71-16.19-.45.44-.7 4.94-.54 10l.28 9.19-2.56-3.45c-2.6-3.51-3.53-6.44-1.35-4.25 2.23 2.23 2.51 1.22 2.23-8.05-.38-12.92-2.61-22.38-7.48-31.74-5.79-11.116-10.04-15.487-17.42-17.9-6.61-2.16-7.53-2.015-7.54 1.196 0 3.528-4.02 9.035-10.98 15.067-7.34 6.357-10.37 7.007-16.93 3.667-4.94-2.524-11.65-10.154-12.45-14.167-.95-4.717-.76-10.772.41-12.942.77-1.456.71-1.934-.28-1.934-3.77 0-11.46 9.76-16.82 21.358-1.57 3.378-2.87 5.595-2.89 4.92-.09-2.233 4.72-12.046 8.94-18.267 4.68-6.895 9.32-10.34 12.8-9.504 2 .48 2.61-.156 4.71-4.908 3.76-8.498 8.49-23.123 11.04-34.099 2.54-10.927 3.32-10.219.97.876l-1.46 6.876 3.87 4.398c5.14 5.84 7.4 10.697 8.05 17.313.51 5.226.67 5.492 3.82 6.132 4.34.881 6.87 3.301 7.62 7.264.52 2.781 1.19 3.387 4.85 4.367 2.33.626 4.97 1.421 5.87 1.766 1.31.507 1.76-.297 2.34-4.182 2.32-15.642 8.07-28.953 15.27-35.363 4.54-4.04 4.62-4.2 1.76-3.512-1.65.396-3.71 1.36-4.58 2.143-2.06 1.86-2.62 1.802-5.65-.578-1.5-1.179-4.05-2-6.23-2-4.08 0-12.18 2.47-16.04 4.895-2.33 1.462-2.41 1.453-1.16-.119 2.09-2.64.66-3.52-5.06-3.116-3.86.272-4.71.122-3.17-.558l2.1-.93-2.21-8.837c-3-12.035-4.52-15.225-9.26-19.503-6.29-5.674-7.61-6.146-9.95-3.543-1.09 1.216-4.83 7.611-8.3 14.212-7.07 13.422-16.81 29.01-17.63 28.198-.29-.293 1.09-3.054 3.06-6.135s3.58-5.796 3.58-6.034c0-.237-1.91.437-4.25 1.498s-5.6 1.94-7.25 1.954c-5.36.046-9.37 3.458-12.7 10.8-4.87 10.74-7.83 24.084-8.48 38.219-.66 14.303.65 21.393 5.82 31.503 4.89 9.55 4.91 9.55 10.23 2.57 4.17-5.49 4.65-6.67 4.79-11.83.1-3.5.32-4.48.56-2.51l.4 3.23 2.41-2.73c3.07-3.49 3.07-2.22-.01 5.27-1.4 3.4-2.46 7.94-2.45 10.5l.03 4.5 1.7-3.43c2.06-4.16 4.88-5.61 3.79-1.96-.39 1.31-1.36 6.44-2.16 11.39-1.34 8.32-1.32 9.28.31 12.74.97 2.05 2.01 3.74 2.31 3.75.3 0 1.14-1.68 1.87-3.74 1.66-4.7 3.42-6.74 7.18-8.29 2.5-1.04 3.23-.97 4.78.43 1.66 1.5 1.95 1.51 3.14.09.71-.87 1.9-1.34 2.64-1.06.81.31 2.07-.94 3.24-3.21 1.59-3.11 6.86-8.21 8.48-8.21.25 0 3.92 2.04 8.15 4.55 4.24 2.5 7.81 4.41 7.94 4.25.13-.17.66-1.1 1.18-2.07.81-1.52 1.8-.7 6.9 5.67 4.4 5.51 7.61 8.38 12.33 11.02 3.51 1.97 6.77 3.58 7.25 3.58.47 0 1.78-1.92 2.9-4.25 2.57-5.37 4.76-8.29 5.59-7.46.36.35-.54 5.27-2 10.92-8.57 33.29-10.99 42.23-13.79 50.79-1.71 5.22-3.94 11.16-4.96 13.19-2.48 4.94-7.88 8.92-12.58 9.28-2.09.15-2.89.09-1.79-.14s3.22-.9 4.7-1.48l2.7-1.06-1.61-4.14c-1.79-4.62-3.12-6.65-4.36-6.65-1.16 0-7.16 12.82-6.5 13.89.3.48-.28 1.1-1.29 1.36-2.71.71-8.14 11.33-8.14 15.92 0 4.06.95 4.79 3.01 2.31.89-1.06 1.62-1.21 2.5-.48.68.57 1.99.74 2.91.39 1.05-.4 2.59.21 4.09 1.62l2.41 2.26 1.2-2.64c1.22-2.68 3.26-3.44 4.38-1.63 1.09 1.75 5.38 1.09 6.5-1 .59-1.1 1.68-2 2.44-2 .82 0 1.85-2.09 2.59-5.25 1.57-6.67 2.65-8.75 4.57-8.75 1.89 0 1.31 2.17-2.74 10.25-1.59 3.16-3.56 5.75-4.37 5.75-.82 0-1.49.41-1.49.92s-1.33 1.59-2.96 2.41c-2.53 1.26-3.12 1.27-4.12.07-1.89-2.28-3.71-1.62-4.42 1.6-.83 3.78-1.61 3.77-3.87-.06-2.18-3.68-4.2-3.34-3.94.65.1 1.6.23 6.39.29 10.66.1 6.97.3 7.75 2.05 7.75 1.47 0 2.22 1.11 3.1 4.58.74 2.94 1.43 4.13 1.93 3.31 1.35-2.18 3.61.68 8.28 10.47 6.5 13.65 6.41 13.33 7.59 28.25.6 7.64 1.26 15.78 1.46 18.1.19 2.31.09 4.48-.24 4.81s-1.84-.89-3.35-2.71l-2.75-3.31-.02 3.27c-.03 2.82.62 3.68 4.67 6.25 5.61 3.56 6.01 3.6 9.01.78 2.19-2.05 2.44-2.09 4.02-.51.92.93 2.41 3.61 3.3 5.95 1.08 2.82 2.1 4.1 3.05 3.79 2.69-.87 8.44-.26 12.18 1.3 3.17 1.33 3.74 2.03 3.74 4.63 0 2.85.2 3.03 2.75 2.42 1.51-.37 2.88-.77 3.03-.89zm-35.9-239.73c-2.13-3.96-1.66-10.43.93-12.99l2.31-2.27 1.94 2.36c2.31 2.8 2.48 6.91.49 11.67-1.66 3.98-3.94 4.47-5.67 1.23zm4.14-1.8c.6-1.12.95-3.94.79-6.25-.25-3.44-.67-4.21-2.31-4.21-1.6 0-2.06.77-2.32 3.9-.6 7.35 1.5 10.94 3.84 6.56zm-72.41-.55c-1.14-2.96-.61-10.03.89-11.97 1.48-1.92 1.52-1.92 3 0 1.54 1.99 1.94 7.3.87 11.31-.69 2.58-3.86 3.03-4.76.66zm3.53-2.66c.48-4.33-.08-8.75-1.1-8.75-1.01 0-1.85 6.54-1.25 9.7.64 3.34 1.93 2.81 2.35-.95zm53.23 1.77c-.78-2.04.24-8.53 1.55-9.84 2.06-2.06 4.19 1.37 3.88 6.23-.25 3.89-.64 4.64-2.55 4.91-1.38.19-2.5-.31-2.88-1.3zm4.02-2.94c.71-2.81-.19-5.82-1.49-5.02-1.17.72-1.17 7.44-.01 7.44.49 0 1.17-1.09 1.5-2.42zm-69.31-12.17c.05-1.16.28-1.4.6-.6.29.72.26 1.58-.08 1.92-.33.33-.56-.26-.52-1.32zm69.59-.08c-1.12-1.12-.75-6.858.53-8.133 3.2-3.196 6.74 1.209 4.88 6.083-.97 2.56-3.82 3.64-5.41 2.05zm4.13-4.634c-.38-3.853-2.52-4.66-3.37-1.273-.86 3.437.09 5.697 2.09 4.927 1.08-.41 1.49-1.588 1.28-3.654zm-64.1 1.277c-.88-3.376 1.15-8.976 3.25-8.976 2.6 0 4.35 5.248 2.85 8.538-1.4 3.085-5.33 3.365-6.1.438zm4.69-.558c1.13-2.946.66-6.418-.87-6.418-1.66 0-3.05 4.183-2.16 6.497.75 1.956 2.27 1.916 3.03-.079zM208 345.305c0-1.24-3.01-3.67-7-5.65-1.92-.96-4.4-2.56-5.5-3.56-2.43-2.21-10.5-1.64-10.5.74 0 2.25 5.14 6.49 6.93 5.71 4.06-1.75 6.95-1.5 10.69.95 4.18 2.73 5.38 3.14 5.38 1.81zm120.52-4.17c1.78-1.97 1.75-2.09-1.08-5.05-2.43-2.53-2.66-3.18-1.42-3.97.81-.51 2.04-.94 2.73-.95 2.29-.03 1.34-4.8-1.38-6.94-2.63-2.07-6.97-2.71-8.87-1.31-2.08 1.53-11.5 12.44-11.5 13.32 0 .5 1.81.92 4.03.92 2.66 0 4.23.51 4.61 1.5.31.82 1.31 1.51 2.22 1.53.9.02 2.76.68 4.14 1.47 3.37 1.92 4.37 1.85 6.52-.52zm-122.91-5.38c-1.58-3.78-.96-4.39 2.54-2.52 3.11 1.66 3.21.56.42-4.95-1.41-2.79-2.57-5.65-2.57-6.36 0-.72-2.14-1.84-4.75-2.5-2.61-.65-5.76-1.49-7-1.85-2.18-.64-2.25-.44-2.25 6.27 0 6.42.22 7.15 3.05 9.86 2.68 2.56 10.91 6.73 11.76 5.95.17-.16-.37-1.91-1.2-3.9zm21.76-5.85c3.24-8.9 3.26-10.14.24-11.52-2.2-1-2.52-.79-3.94 2.59l-1.56 3.68.2-5 .19-5-4.21-.31c-4.82-.35-7.62.86-9.84 4.24-1.45 2.22-1.34 2.8 1.75 9.18 3.46 7.13 3.71 7.3 13.92 9.27.33.06 1.8-3.15 3.25-7.13zm5.67-8.25c-1.88-17.92-2.97-22.46-7.72-32.22-2.49-5.11-4.9-9.52-5.35-9.8-.46-.29-1.45.37-2.21 1.45-1.27 1.81-1.48 1.49-2.61-3.98-1.09-5.28-1.5-5.95-3.63-5.95-2.36 0-2.39-.12-1.82-6.98.45-5.34.17-8.07-1.17-11.57l-1.75-4.6-2.2 2.08c-3.09 2.89-3.58 2.63-3.58-1.93 0-4.53-.13-4.62-3.54-2.39-1.67 1.1-2.46 2.54-2.46 4.5 0 1.59.45 2.89 1 2.89s1 .62 1 1.39c0 1.59 2.12 2.61 5.46 2.61 1.26 0 2.76.56 3.34 1.25 1.73 2.09.78 7.86-1.62 9.8-1.2.97-2.18 2-2.18 2.28s1.35 1.86 3 3.51c3.63 3.63 3.7 5.11.6 12.71l-2.4 5.9 4.65 1.19c7 1.81 10.14 3.18 10.72 4.68.29.75-1.07 3.78-3.02 6.75-4.81 7.29-4.67 7.97 1.48 7.24 3.97-.47 5.39-.24 6.75 1.12.95.94 3.18 2.57 4.97 3.62 3.69 2.18 3.81 2.78 1.8 9.45-1.38 4.59-1.34 4.98.75 7.91l2.2 3.09.35-2.5c.2-1.38-.17-7.45-.81-13.5zm-42.76 2.21c-.01-7.79-.27-9.07-2.3-11.24-2.57-2.73-8.55-4.3-10.18-2.67-1.15 1.14-.35 8.72 1.18 11.17.78 1.26 1.25 1.18 3.22-.55 5.69-4.99 5.86-4.76 2.16 3.04-4.09 8.6-3.77 9.78 2.53 9.3l3.39-.26v-8.79zm111.53 5.33c2.78-3.76 2.75-4.21-.45-7.41-2.6-2.6-2.6-2.63-.41-2.63 2.05 0 2.18-.33 1.57-4.25-1.35-8.74-10.55-13.23-20.77-10.15-2.16.65-2.32 4.68-.25 6.4 2.06 1.71 1.88 3-.42 3-3.59 0-5.08 1.17-5.08 3.99 0 3.97 2.69 6.51 8.99 8.48 3.02.95 7.07 2.56 9 3.58 4.71 2.49 5.28 2.42 7.82-1.01zm10.62-3.51c5.01-5.87 10.1-16.13 13.09-26.38 2.19-7.48 1.46-9.49-3.62-9.98-1.87-.18-4.12-.98-4.99-1.76-1.42-1.28-1.77-1.02-3.2 2.32-.88 2.07-2.98 6.99-4.66 10.93-3.03 7.12-4.24 17.48-2.19 18.75.47.29 2.55-2.72 4.61-6.69 4.01-7.73 6.33-11 4.66-6.57-.56 1.46-2.6 5.82-4.56 9.7-1.95 3.88-3.28 7.75-2.95 8.6.33.86-.13 2.68-1.03 4.05-2.92 4.46.05 2.63 4.84-2.97zm-106.66-8.37c.69-.44 3.46-4.6 6.14-9.23 3.65-6.3 4.59-8.72 3.73-9.55-1.58-1.55-7.38-3.38-10.71-3.38-3.1 0-4.11 2.08-6.41 13.27-1.13 5.49-1.08 6.17.62 7.87 1.97 1.96 4.52 2.36 6.63 1.02zm-14.51-14.07c.8-11.72 2.42-13.08 1.92-1.61-.36 8.11-.19 9.52 1.13 9.52 1.65 0 2.11-1.09 3.19-7.5.37-2.2 2.26-7.83 4.2-12.5 1.93-4.68 3.89-9.48 4.35-10.67.65-1.69.25-2.76-1.77-4.78l-2.61-2.61-2.75 2.64c-1.52 1.45-3.01 3.64-3.32 4.86-.38 1.55-1.82 2.61-4.69 3.46-3.4 1.02-4.39 1.92-5.64 5.09-1.39 3.53-1.91 3.91-6.22 4.5-3.75.52-5.04 1.22-6.38 3.49-1.44 2.44-1.5 3.38-.42 6.68l1.25 3.84 6.17.29c3.86.19 6.61.84 7.37 1.75 2.62 3.16 3.67 1.56 4.22-6.45zm119.2-10.09c3.46-8.31 4.71-9.69 6.83-7.57.86.86 2.72 1.57 4.12 1.57 1.96 0 3.01-.91 4.57-3.96 2.57-5.04 2.54-5.62-.43-8.59-2.78-2.77-8.03-3.22-12.97-1.12l-2.92 1.25 2.92 2.35c3.07 2.48 3 2.48-3.53.46-1.75-.54-1.9-.23-1.39 2.89.31 1.92.08 4.33-.52 5.35-.89 1.55-1.09 1.09-1.15-2.63-.06-4.39-.1-4.44-1.45-2-1.33 2.38-1.39 2.28-1.22-2.41.17-4.62.01-4.95-2.7-5.7-1.59-.43-3.84-1.64-5-2.68-1.85-1.65-2.7-1.75-6.62-.83l-4.5 1.07 4 .35c3.8.33 7.5 2.49 7.5 4.38 0 .48-1.33.18-2.95-.66-5.86-3.03-11.87-1.52-17.49 4.39-3.71 3.91-2.72 3.94 2.6.09 2.86-2.08 5.25-2.98 7.74-2.94 3.57.07 3.56.08-1.18 1.36-4.91 1.32-9.72 4.91-9.72 7.25 0 1.66-.04 1.66 4.6-.28s12.13-1.46 15.91 1.02c2.12 1.39 2.39 2 1.43 3.15-.99 1.2-.56 1.45 2.69 1.54l3.87.1-3.75 1c-3.41.91-3.75 1.31-3.75 4.43 0 3.92 2.16 5.37 5.19 3.48 1.76-1.1 1.83-1.02.8.9-1.42 2.66-3.63 3.53-5.34 2.11-.74-.61-1.63-.81-2-.44s1.03 1.61 3.09 2.76c2.07 1.15 4.2 3.08 4.73 4.28.87 1.97 1.18 1.62 3.12-3.52 1.19-3.14 3.38-8.63 4.87-12.2zm-17.66 7.8c1.88-1.88 1.5-8.52-.55-9.75-1.65-.99-1.65-1.13-.03-2.39 2.64-2.06.21-3.66-5.54-3.66-5.6 0-5.52-.71-1.05 10.25 2.76 6.77 4.56 8.16 7.17 5.55zm-111.39-10.11c.98-.72 2.88-4.88 4.22-9.25 2.06-6.7 2.36-7.23 1.95-3.37-.49 4.55-.48 4.57 2.38 4.15 2-.3 3.24-1.28 4.04-3.23.64-1.54 2.25-3.82 3.58-5.07 1.97-1.85 2.44-3.31 2.51-7.85.08-5.18.16-5.34 1.03-2.32 1.02 3.52 2.31 4.18 3.27 1.66 1.31-3.4.63-6.17-1.64-6.77-1.24-.33-2.4-.17-2.57.35-.18.52-1.53-.16-2.99-1.52-1.47-1.36-3.21-2.47-3.88-2.47s-1.67-.79-2.23-1.75c-.92-1.58-1.02-1.54-1.05.41-.02 1.2 1.2 3.13 2.72 4.32l2.75 2.15-2.75-.58c-3.49-.75-3.55.71-.2 5.1 1.4 1.84 2.09 3.35 1.53 3.35s-2.02-1.35-3.24-3c-2.59-3.51-3.47-3.64-6.84-1-1.38 1.07-3.7 1.96-5.18 1.97-1.68.02-3.44 1-4.75 2.66-2.42 3.08-2.72 6.37-.57 6.37 2.34 0 1.81 1.99-2.5 9.37-2.2 3.77-4 7.02-4 7.24 0 1.05 12.83.23 14.41-.92zm-11.96-7.04c4.11-7.35 4.18-7.65 1.66-7.65-1.14 0-2.48 1.27-3.41 3.25-1.68 3.56-3.26 10.75-2.36 10.75.31 0 2.16-2.86 4.11-6.35zm114.99-14.65c2.13 0 1.96-.94-.69-3.82l-2.25-2.45 2.39 1.24c2.28 1.19 2.35 1.13 1.7-1.48-.38-1.5-.95-4.06-1.28-5.7-.7-3.48-2.35-4.38-5.23-2.84-1.9 1.02-2.08 2.01-2.08 11.3v10.19l2.94-3.22c1.62-1.77 3.65-3.22 4.5-3.22zm22.19-1.75l-.54-4.75 1.34 3.5 1.35 3.5 1.03-2.5 1.03-2.5.71 3.25c.38 1.78 1.32 3.25 2.07 3.25 1.06 0 1.38-1.88 1.38-8 0-8.31 1.05-10.16 2.85-5 1.32 3.79 3.15 3.88 3.15.15 0-3.28-2.06-5.44-7.25-7.62-5.93-2.47-9.23-2.01-12.17 1.72-2.1 2.66-2.56 2.9-2.57 1.3-.01-1.46-.3-1.66-1.14-.82-.85.85-.71 2.2.54 5.33 2.4 6 1.39 5.84-1.89-.31-1.55-2.89-5.02-8.53-7.71-12.54-3.2-4.75-4.2-6.85-2.86-6.01 1.13.7 2.05 1.62 2.05 2.04 0 .41.46.76 1.03.76.58 0 .37-1.26-.5-2.95-2.24-4.32-1.81-4.98 1.02-1.55l2.47 3-1.53-4.5c-.85-2.48-2.57-6.3-3.83-8.5-1.93-3.37-2.75-3.97-5.22-3.79-5.23.39-15.44 5.85-15.44 8.25 0 .34 2.43 1.45 5.39 2.45 2.97 1.01 6.68 2.86 8.25 4.12l2.86 2.28-2.59-.49c-2.22-.42-3.15.27-6.38 4.76-3.56 4.96-3.67 5.34-1.96 6.59 2.91 2.13 6.1 1.55 9.9-1.78 1.94-1.7 3.53-2.63 3.53-2.06 0 .58-.45 1.33-1 1.67-1.66 1.03-1.15 1.98 2.11 3.9 2.14 1.27 2.73 2.08 1.88 2.6-2.13 1.32.62 7.59 3.94 8.97 1.56.64 4.1 2.49 5.64 4.1 2.02 2.11 3.75 2.93 6.2 2.93h3.39l-.53-4.75zm-125.86-4.44c-.62-1.85-2.46-2.06-3.12-.36-.41 1.09.03 1.55 1.46 1.55 1.14 0 1.88-.53 1.66-1.19zm2.98-6.02c-.48-5.06-.45-5.14 1.24-3.06 1.88 2.32 4.01 1.38 4.01-1.77 0-2.56 1.18-3.1 2.62-1.2 1.19 1.58 1.32 1.49 1.35-.92.03-2.49-.29-2.67-5.22-3.03-2.89-.2-5.4-.03-5.58.38-.17.42-2.77-1.09-5.77-3.36-5.31-4-8.1-4.62-5.29-1.17 1.22 1.51 1.18 1.63-.36 1.06-1.4-.53-1.75-.12-1.74 2.06.03 5.58.98 7.17 3.92 6.58 2.21-.44 3.06-.01 4.53 2.3 1.98 3.12 5.63 7.34 6.34 7.34.25 0 .23-2.34-.05-5.21zm115.68-11.54l1.49-2.75.04 2.75c.04 3.04 2.99 3.99 3.11 1 .04-.97.41-4.11.82-7 .66-4.58.49-5.48-1.32-7.14-2.6-2.39-11.66-8.11-12.85-8.11-.95 0-.27 4.34 1.55 10l1.13 3.5.68-3c.48-2.12.72-.93.8 4.05.07 3.99.64 7.57 1.32 8.25 1.58 1.58 1.51 1.61 3.23-1.55zm-101.6-2.33c5.26-4.14 21.17-33.43 21.17-38.97 0-1.08.45-1.95 1-1.95 1.35 0 1.26 1-.5 6-1.82 5.17-1.82 5-.1 5 .77 0 2.21 2.24 3.2 5.01.99 2.76 2.28 4.86 2.85 4.68 2.3-.76 5.72-7.52 9.11-18.01 3.55-11 3.56-11.05 1.66-13.61-3.6-4.86-8.03-7.08-14.12-7.05-7.52.03-13.26 2.75-16.67 7.9-1.48 2.24-2.87 4.08-3.08 4.08-.7 0 3.6-7.85 4.65-8.5 3.17-1.96-3.95-4.88-9.78-4.01-6.64.99-11.31 6.13-14.59 16.05-7.26 22-6.53 42 1.68 45.5 3.26 1.39 10.49.26 13.52-2.12zm43.6-62.56c1.28-4.88 3.74-14.23 5.47-20.78 3.56-13.47 3.6-16.74.1-8.29-1.3 3.14-2.72 5.71-3.15 5.71s-4.38-1.84-8.77-4.08c-5.28-2.7-8.67-3.87-10-3.45-1.11.35-4.49 3.37-7.51 6.71-5.66 6.26-8.64 13.01-10.01 22.68-.89 6.29.46 7.49 5.75 5.08 7.86-3.57 17.42-2.05 22.74 3.61 1.26 1.34 2.46 2.27 2.67 2.06.22-.22 1.43-4.38 2.71-9.25zm-51.45-5.93c-1.56-4.59-3.57-11.86-4.48-16.14-2.79-13.08-4.4-17.29-6.63-17.29-2.74 0-6.3 4.15-7.77 9.05-1.05 3.5-1.01 4.3.26 5.29.82.63 2 3.09 2.62 5.46.91 3.47 1.47 4.19 2.94 3.72 1.38-.43 2.11.22 3.05 2.7.67 1.8 2.04 4.85 3.04 6.78 1 1.92 2.14 5.3 2.54 7.5 1 5.58 1.2 5.74 4.4 3.37l2.85-2.1-2.82-8.34zm16.89.82c1.74-9.7 5.3-16.36 11.89-22.23 3.1-2.76 6-5.02 6.44-5.02 1.54 0 .77-1.68-3.18-6.97-3.58-4.8-4.05-5.13-4.75-3.27-.73 1.96-1.23 1.79-9.67-3.39l-8.9-5.46-2.73 2.61c-1.5 1.44-3.55 4.5-4.55 6.8-2.32 5.35-2.13 5.16-3.8 3.78-1.16-.97-1.6-.67-2.36 1.6-1.21 3.65.49 12.49 5.2 27.05l3.64 11.25h11.55l1.22-6.75zm68.96-66.57c3.2-3.41 8.92-18.385 9.23-24.183.43-8.049-.03-17.897-.9-19.271-.64-1.011-1.91-.923-6.23.43-2.99.935-5.59 1.821-5.79 1.968-.21.148 1.1 3.78 2.89 8.071 5.63 13.481 5.2 24.555-1.24 31.885-3.42 3.9-1.54 4.91 2.04 1.1zm-1.38-4.69c1.65-2.82 2.04-5.131 1.98-11.993-.04-4.675-.67-10.271-1.39-12.435l-1.32-3.934-2.33 4.583c-3.23 6.364-8 9.174-14.49 8.55-5.64-.542-12.18-4.973-12.72-8.616-.49-3.302-1.88-2.551-2.63 1.416-.53 2.822-.12 4.486 1.93 7.994 2.21 3.768 3.2 4.527 6.62 5.073 4.82.772 14.75 6.972 17.24 10.762 2.28 3.48 4.5 3.04 7.11-1.4zm-64.75-5.853c7.18-5.676 9.99-9.474 11.21-15.16 1.54-7.181 1.44-7.785-1.87-11.096l-2.96-2.962-9.29.624c-11.32.76-18.8 2.699-21.36 5.537-2.76 3.049-2.47 10.294.64 15.843 2.98 5.32 11.07 11.077 15.58 11.077 2.17 0 4.71-1.22 8.05-3.863zm1.3-18.788c-3.58-.93-8.74-1.288-14.79-1.027-15.79.68-8.6-3.942 7.83-5.029 6.76-.447 9.2-.225 11.69 1.062 1.73.895 3.44 2.1 3.79 2.678.65 1.054-1.21 4.061-2.39 3.853-.35-.061-3.11-.753-6.13-1.537zm7-1.329c0-.538-1.14-1.725-2.54-2.639-2.04-1.339-4.15-1.561-10.87-1.141-11.6.723-14.7 2.644-4.59 2.845 4.12.081 8.85.492 10.5.912 4.41 1.123 7.5 1.133 7.5.023zm25.42-6.856c2.42-4.795 7.94-10.167 10.42-10.167.81 0 1.15-3.139 1.12-10.25l-.05-10.25-3.99 4.5c-6.33 7.137-10.22 17.025-11.87 30.139-.98 7.813-.08 12.088 1.1 5.216.39-2.28 1.86-6.415 3.27-9.188zm79.57 1.298l3.48-1.76-8.48-3.227c-4.67-1.775-11.27-3.462-14.66-3.75l-6.16-.524.55 5.648c.31 3.106.75 5.866.99 6.133.23.267 1.24-.594 2.24-1.913l1.8-2.399 1.25 2.323c1.1 2.058 1.35 2.134 2.17.664 2.37-4.243 5.79.372 4.4 5.936-.63 2.489-.46 2.432 4.14-1.388 2.63-2.191 6.36-4.776 8.28-5.743zm-69.04-2.224c2.66-2.152 1.84-5.504-1.23-5.044-2.51.377-4.24 2.998-3.41 5.167.8 2.095 1.94 2.065 4.64-.123zm-48.29-3.797c.33-.856.14-2.994-.43-4.75l-1.03-3.194-.1 2.815c-.05 1.549-.57 3.687-1.14 4.75-.81 1.53-.7 1.935.54 1.935.86 0 1.83-.701 2.16-1.556zm5.15-3.303c.37-4.997-3.09-13.238-7.3-17.391-2.34-2.31-4.48-3.493-4.52-2.5-.01.137-.67 2.434-1.48 5.104l-1.48 4.854 2.32-.582c4.1-1.028 8.65 4.906 8.65 11.272 0 5.91 3.37 5.24 3.81-.757zm-13.01-3.341c1.81-1.807 1.44-3.8-.69-3.8-1.97 0-3.53 2.506-2.55 4.09.76 1.236 1.81 1.143 3.24-.29z"/></svg>
