<svg xmlns="http://www.w3.org/2000/svg" version="1.0" viewBox="6.37 18.536 464.873 332.941"><path d="M67.307 53.163c.174-.234 3.874-11.738 11.875-20.455 8.382-9.131 21.095-15.455 21.883-13.951.993 1.896-8.726 3.313-16.844 15.631-3.366 5.107-5.477 11.564-5.692 17.265 0 0 .747 3.079 1.26 3.22.513.14 1.563-.018 1.866-.561.303-.542-3.453-7.792 10.685-18.664 12.333-9.483 30.889-12.621 31.262-12.026.207.33-9.295 5.423-16.611 10.86-5.885 4.374-9.963 9.263-9.425 9.846 1.207 1.306 53.378-15.2 54.102-14.302s-17.007 7.139-18.407 18.407c-.8 6.44 8.936 5.996 22.747 6.929 13.812.934 26.258 1.844 26.293 2.543.035.7-16.751 3.687-19.504 10.125-2.753 6.439-.513 12.085 4.246 13.578s28.229 4.316 28.439 3.71-8.166-5.879-8.398-6.93c-.233-1.05 10.498-6.858 15.748-9.028 5.249-2.17 12.831-4.619 12.948-5.669s-2.729-3.92-6.789-6.789c-4.059-2.869-8.889-4.129-8.749-5.459s19.48-5.016 44.303-8.679c10.498-1.68 21.486-4.689 36.045-6.439 14.558-1.749 30.865-3.919 43.113-2.449s29.465 4.759 43.322 11.968 31.916 21.977 34.436 24.566c2.519 2.589 5.529 4.76 4.688 6.02-.84 1.26-25.196-.7-37.514 10.778s-15.468 15.747-16.378 24.006c-.909 8.259-.069 13.928 1.75 18.197 1.82 4.27 5.18 9.869 4.34 11.059s-21.066-4.13-26.105 4.97c-5.039 9.098-2.031 17.917-.561 21.836 1.47 3.92 4.97 7.454 4.34 8.399-.63.944-12.527-2.007-22.188 3.639-9.658 5.646-14.883 10.405-14.978 11.479-.094 1.074 7.604 2.473 11.524 2.985s9.473 1.073 12.179 1.073 8.958-1.913 9.519-.887c.562 1.025-9.146 6.672-10.265 13.998-1.12 7.326-1.399 10.404.606 14.324s4.386 9.846 10.451 9.426c6.066-.42 11.385-1.588 13.531-1.82s4.666-1.727 5.6-1.213.652.605.187 1.26c-.467.652-8.493 4.666-10.685 7.934-2.193 3.266-5.319 9.844-4.854 12.783.467 2.939 3.686 6.02 8.912 3.453s6.252-4.525 4.945 2.333c-1.305 6.858 1.354 10.452 7.746 9.005 6.394-1.445 13.812-3.359 19.365-13.158 5.553-9.797 6.672-17.496 7.278-26.361s-2.66-19.83-7.373-30.608c-4.712-10.778-7.092-27.902-7.278-33.035-.188-5.133-.233-20.25 4.105-29.535 4.339-9.286 11.432-20.018 17.917-25.29s19.41-12.178 20.483-13.531c1.072-1.353 4.713-5.646 3.125-9.938-1.586-4.293-3.825-4.479-5.271-6.112-1.445-1.633-1.98-2.604-2.006-3.359-.025-.756 5.832-4.433 10.824-5.926 4.994-1.493 19.971-2.753 26.783-1.026 6.812 1.726 19.738 2.753 22.35 5.086 2.613 2.333 4.434 8.632 0 16.424-4.432 7.792-7.744 17.03-9.098 19.41s-6.438 11.432-8.213 13.578c-1.773 2.146-5.459 5.926-6.111 6.065-.652.141-3.033.934-3.5-1.166s-3.219-11.945-5.318-15.258c-2.102-3.312-6.906-7.419-8.68-8.025s-11.245 5.973-12.879 8.398c-1.633 2.427-8.071 16.284-9.004 19.177-.934 2.894-3.639 16.611-2.894 22.07.746 5.459 4.806 18.338 6.812 23.377 2.007 5.039 10.125 20.529 11.386 23.936s6.952 21.791 6.999 23.844c.047 2.054 2.053 19.69.605 26.036s-5.412 20.018-6.719 22.63c-1.306 2.613-10.777 18.244-13.391 21.37s-11.571 12.6-18.479 16.33c-6.904 3.732-16.75 7.934-20.996 9.52s-32.195 3.5-39.709 3.174c-7.512-.328-28.647-1.588-34.994-2.707s-11.898-1.398-12.271-.887c-.374.514-.232 7.793-5.086 10.219s-13.764 4.619-17.964 6.111c-4.199 1.494-16.657 3.312-20.204 4.014-3.546.699-19.271 3.967-21.463 4.76s-11.887 2.014-12.365 1.959c-.479-.053-2.706 2.287-4.619 2.986s-6.252.467-6.719-.561c-.466-1.025-1.038-1.025-1.248-.99s-1.128 1.354-1.435 1.33c-.306-.027-.708-.736-1.12-.771-.411-.035-2.729 2.135-3.185 2.344-.455.211-.639.123-.91 0-.271-.121-.481-1.318-.525-1.504-.044-.184.63-2.555 1.05-3.162.42-.605-.933-1.213-.327-1.865s-.28-6.205.233-10.219c.513-4.014 4.946-7.277 6.859-7.84 1.913-.559 6.019-1.586 6.486-1.818.466-.232 4.479-2.193 5.272-2.893.793-.701 6.392-2.66 7.092-2.895.7-.232 3.873-1.445 4.573-1.727.7-.279 2.146-.652 1.913-2.287-.233-1.633-1.374-3.877-1.773-4.104-.399-.229-13.018-2.707-18.15-4.246-5.133-1.541-11.012-4.107-12.132-4.807-1.12-.699-2.379-1.773-2.939-1.4s.187 2.334-.513 3.221-9.005 8.818-11.898 12.037c-2.893 3.221-6.206 9.053-9.052 12.646-2.846 3.592-4.386 7.838-9.052 9.053-4.666 1.213-14.372.232-19.831.279s-9.892-.654-13.858.047c-3.966.699-9.752 1.912-10.592 1.771s-1.545-.461-1.866-.42c-.321.041-1.161.566-1.528.67-.367.105-1.907.402-2.205.246-.297-.158-1.522.018-1.802.156-.28.141-1.286.484-1.452.404-.167-.082-.741-.66-1.271-.66s-2.31.35-2.636.279c-.327-.068-2.45.047-3.826.047s-2.8.07-3.5.49c-.7.42-1.959.678-2.52.631-.561-.049-1.167.467-1.33.512-.164.047-.467-.561-.49-.84s.934-1.959 1.423-2.893.256-1.025 1.33-1.891c1.074-.863 1.236-.979 1.727-1.375.49-.398.886-.654.84-.748-.047-.092-.315-.049-.63.094-.315.145-2.403.957-2.963 1.307-.56.352-1.68 1.189-2.193 1.656s-1.237 1.145-1.4.957c-.164-.188-.449-1.441-.42-1.727.029-.287 1.33-4.199 1.563-4.598.233-.396.537-1.072 1.027-1.516.49-.443-.14-.701-.537-.373-.396.326-1.516.725-1.609 1.002-.094.281-.397-.699-.187-1.119s.723-1.051 1.027-1.492c.303-.443 1.003-1.098 1.33-1.307.327-.211-.84-.42-1.283-.281-.443.141-1.19-.068-.91-.467.28-.395 2.426-2.729 3.033-3.033.607-.303 3.593-1.91 3.919-2.006.326-.094 1.073-.139 1.33-.232.256-.094 2.986-1.959 4.339-2.311 1.354-.35 3.43-.303 3.966-.117.537.189 2.123.281 2.566.002s1.33-1.891 1.89-2.029c.56-.141 5.319-1.26 6.929-1.562 1.609-.305 6.952-1.518 8.235-1.562 1.283-.047 6.579.068 7.069.139.49.07 2.753.143 2.916.117.164-.023 1.167-.232 1.283-.35.117-.117-3.919-.746-7.815-1.074-3.896-.326-8.889-.908-12.318-1.049s-9.262.141-11.245.979c-1.983.84-4.34 1.68-4.853 1.633-.514-.047-1.283.467-1.843.584s-1.913.094-2.566-.068c-.653-.164-1.68-.725-2.123-.701s-2.496-.023-3.383.701c-.886.723-1.563.908-1.936 1.096-.374.188-1.359.135-1.394-.059-.035-.191.28-1.4.507-1.785s1.26-2.781 1.487-3.078c.228-.299.542-1.33.7-1.523.158-.191.403-1.084.595-1.434.192-.352.487-.973.42-1.121s-1.522.402-1.662.367c-.14-.035-.963.666-1.26.805-.297.141-1.161.086-1.236-.08s.711-1.824.886-2.053c.175-.23 1.354-1.014 1.493-1.168.14-.154 1.062-1.195 1.12-1.398.058-.205.21-.795.093-.934-.117-.141-1.709-.572-1.773-.84-.064-.27 2.566-3.732 4.899-5.039 2.333-1.308 3.079-1.681 3.312-2.054.233-.374.233-1.681 1.213-2.192.98-.514 2.66-.935 3.173-1.354.513-.421.391-.781.98-1.119.589-.339 11.198-.888 17.777-.28 6.579.606 11.198.373 14.837-2.893 3.64-3.268 6.719-11.525 4.619-16.564s1.12-2.566-4.152-5.926c-5.273-3.359-9.659-12.878-9.939-15.117-.28-2.24-1.353.141-4.152-2.894s-8.865-22.116-9.705-25.616c-.84-3.499.093-5.926.466-6.484.374-.562-1.3-2.315-1.68-4.293-.379-1.979.233-14.932 1.213-18.758.979-3.826 5.786-14.791 6.859-16.238 1.073-1.446 1.659-1.63 1.82-1.912.16-.283-.42-2.8.373-8.726s4.666-12.599 5.179-13.485.653-1.306.7-1.726c.147-1.323-2.347-3.332-2.706-4.946-.56-2.52-.42-3.22-.373-3.826.046-.606-.653-2.041-1.633-2.52s-4.386 2.753-10.592 4.433-11.041.735-12.412.747c-1.37.012-18.943 7.838-26.456 12.645-7.512 4.806-13.718 8.818-14.838 9.379-1.12.56-4.666 6.346-5.739 6.812-1.073.467-1.633 1.12-1.4 1.727.233.606.56 1.866.84 2.38.28.513.934.857.7 1.399-.233.543-1.12.42-1.354.327-.233-.094-1.306-1.073-1.633-1.167-.327-.093-1.96-.7-2.24-1.166-.28-.467-.747-.327-1.4-.98s-6.532.98-8.585.514c-2.053-.467-5.646-1.727-5.926-2.286-.28-.561-.98-.887-1.307-.7s-.28 1.913.187 2.893c.467.98 1.614 2.361 1.493 2.707-.121.345-.902.11-1.26-.094s-6.346-6.719-6.672-8.818-.325-2.407-.513-2.52-3.266-.094-6.393-6.532c-3.126-6.439-3.219-8.959-2.473-12.646.747-3.686-1.104-5.926-.164-8.463 1.33-3.587 6.923-3.843 10.936-5.757 4.013-1.912 13-8.626 17.643-21.102 4.371-11.744 4.488-15.457 4.404-16.814-.053-.84-1.266-4.639-.811-7.775.268-1.849 8.387-8.812 11.338-13.484 2.783-4.404 9.985-10.592 11.059-11.291 1.073-.7 1.849-1.232 2.1-1.447.286-.244.187-2.612.513-3.639.327-1.027 1.213-2.054 1.633-2.333.383-.279 1.451-.575 1.807-1.054zm142.17 79.817c.14-1.096-.222-10.545-.805-10.988s-4.165 4.444-4.97 5.845c-.805 1.399-3.289 5.319-3.395 6.894-.104 1.575-.385 4.164 1.015 5.564 1.4 1.399 4.934 3.43 5.424 3.534.49.105.805-.56 1.05-1.399s.91-4.619 1.05-5.739c.13-1.11.48-2.6.62-3.7zm-12.56-45.143c-.828-.7-7.769 3.22-9.273 6.438-1.505 3.22-4.06 7.104-2.869 10.709 1.189 3.604 4.899 5.424 7.733 5.494 2.835.069 7.419 2.064 9.659 2.345 2.24.279 3.429.979 3.884.385s-1.295-11.198-2.345-13.193c-1.05-1.994-2.415-5.308-2.823-5.914-.41-.601-3.14-5.56-3.96-6.259z"/></svg>
