<svg width="330" height="420" xmlns="http://www.w3.org/2000/svg"><defs><linearGradient x1="50%" y1="0%" x2="50%" y2="100%" id="a"><stop stop-color="#66076D" offset="0%"/><stop stop-color="#36033B" offset="100%"/></linearGradient></defs><path d="M353.708 233.708c6.993-9.687 15.823-15.677 26.8-18.943-3.024-4.066-3.444-4.448-8.095-7.345 8.096-7.013 23.833-18.53 54.416-22.484 15.8 5.95 27.792 16.128 36.224 22.484 3.907-6.356 5.3-10.61 5.669-17.935 17.249 5.793 33.021 19.63 48.824 34.536-7.208-16.601-10.645-24.917-10.645-35.131-13.824-14.2-34.385-21.902-53.432-27.034 2.443 5.132 4.992 14.927 3.516 18.646-4.742-6.382-17.752-18.08-25.891-22.12-30.863-1.528-62.752 0-98.24 18.79 15.158 3.33 21.782 13.469 24.38 21.39-12.914-9.672-27.876-10.117-36.062-1.751-8.187 8.365-7.898 25.896 1.031 44.09-23.322-13.392-18.384-38.742-13.248-50.014-21.377 13.953-50.115 49.02-56.469 67.44 6.354 1.211 10.797 2.02 18.819 3.494-18.819 22.873-35.125 57.657-36.305 89.498 11.157-3.473 20.741-6.872 30.581-9.2-11.537 40.587 1.87 98.697 10.991 111.305 16.204-10.399 42.34-42.243 51.628-58.536 11.007 36.798 6.897 73.222 0 100.566 31.365 17.375 86.067 24.813 140.153-12.036 2.234 8.612 4.163 16.38 6.028 23.403 50.003-32.332 63.84-81.91 65.348-106.43 5.012 5.286 6.054 8.175 14.495 15.957 23.814-70.322 2.29-125.319-27.709-165.94 0 3.033 0 7.72-1.023 9.94-5.377-4.862-7.946-8.068-13.368-14.298 1.794-.755 4.499-3.004 5.422-4.865-1.23-5.01-2.88-10.397-7.855-13.345-3.675.664-10.069 5.128-11.454 7.498-4.427-2.37-8.435-5.828-16.444-9.835 5.167 9.215 9.277 12.544 11.086 17.648 4.287 5.015 20.08 15.058 26.007 23.899-13.914-6.82-37.929-4.97-46.95 0-11.92-14.891-19.791-21.66-24.869-26.352-1.036-5.36 1.92-12.858 6.402-16.677-8.544 1.482-12.63 3.233-16.483 7.248-9.422-5.766-17.702-11.111-26.945-12.928-8.53.995-24.127 9.499-28.226 14.503 5.99 4.862 15.523 10.307 23.785 10.307 8.261 0 18.337-2.032 24.258 1.319 5.921 3.35 17.21 14.823 27.28 26.773-5.512-1.326-16.922-6.374-37.35-4.193-20.428 2.18-50.006-2.8-51.446-31.447-6.813 0-7.64.13-14.634-1.895zm67.854 74.31c6.305-8.365 35.483-24.838 50.325-26.736 6.71 6.156 14.207 9.21 21.424 12.642.358 7.217 0 18.025 0 23.556-7.362 8.017-38.893 30.302-52.126 27.234-4.94-8.004-13.318-23.378-19.623-36.695zm85.624-13.66c4.311-3.232 11.336-8.172 16.37-11.587 4.49 5.5 12.78 41.546 1.113 59.89-8.887-18.344-11.619-16.057-17.605-24.366 0-10.306 0-20.215.122-23.937zM450.48 363.16c6.317 0 27.765-9.964 37.722-21.526h18.75c3.956 4.259 9.275 14.704 9.275 18.56-2.05 12.451-9.888 29.698-23.304 37.895.872-5.387 0-18.452-2.25-27.13-5.347 6.84-17.799 12.604-27.785 14.577-4.188-5.674-9.13-15.195-12.408-22.376zM322.48 171.056c-1.108-5.139-13.077-36.236-22.553-45.905 12.853 5.846 24.657 13.461 32.199 20.724-2.508-16.288-5.287-33.35-6.497-42.458 12.581 9.107 35.848 26.17 44.061 31.14 4.322-9.406 11.894-35.176 15.122-44.557 5.811 9.38 19.699 32.642 24.877 39.587 4.848-4.436 31.44-35.825 36.437-39.533 1.298 16.006 1.833 31.49 1.833 43.252 6.72-9.22 18.166-22.754 28.121-28.644-8.061 15.378-11.295 31.124-11.295 48.205-49.056-12.112-103.042-6.992-142.305 18.189z" transform="translate(-235 -90)" fill="url(#a)" fill-rule="evenodd"/></svg>
